<svg xmlns="http://www.w3.org/2000/svg" width="2000" height="1400"><path fill="#e8e5ff" d="M0 0h2000v1400H0z"/><path d="M0 200h0c69.916-22.32 139.832-44.64 222-42 82.168 2.64 176.587 30.238 267 39 90.413 8.762 176.82-1.314 264-4s175.131 2.018 251 19 139.656 46.243 223 30c83.344-16.243 186.247-77.988 276-85 89.753-7.012 166.358 40.711 247 57s165.32 1.145 290-14" fill="none" stroke="#1d03ff" stroke-width="6" stroke-linecap="round"/><path d="M0 400h0c82.35 13.011 164.7 26.023 250 24 85.3-2.023 173.552-19.08 251-18 77.448 1.08 144.093 20.297 226 27 81.907 6.703 179.077.893 263-15s154.598-41.868 245-41c90.402.868 200.531 28.58 289 28 88.469-.58 155.277-29.451 231-35 75.723-5.549 160.362 12.226 285 30" fill="none" stroke="#6e5eff" stroke-width="6" stroke-linecap="round"/><path d="M0 600h0c90.124-18.809 180.247-37.617 262-23 81.753 14.617 155.134 62.66 230 63 74.866.34 151.215-47.022 234-48 82.785-.978 172.006 44.429 259 47 86.994 2.571 171.761-37.692 252-50s155.949 3.34 248 12c92.051 8.66 200.443 10.331 289 9 88.557-1.331 157.278-5.666 266-10" fill="none" stroke="#8072ff" stroke-width="6" stroke-linecap="round"/><path d="M0 800h0c96.3 22.985 192.598 45.97 270 28 77.402-17.97 135.906-76.893 209-72 73.094 4.893 160.776 73.603 245 83 84.224 9.397 164.988-40.518 252-49s180.271 24.469 271 37c90.729 12.531 178.927 4.643 265-6 86.073-10.643 170.02-24.04 251-28 80.98-3.96 158.99 1.52 277 7" fill="none" stroke="#5a47fe" stroke-width="6" stroke-linecap="round"/><path d="M0 1000h0c82.887-15.277 165.774-30.554 245-28 79.226 2.554 154.79 22.94 244 24 89.21 1.06 192.064-17.204 284-19 91.936-1.796 172.952 12.875 252 16s156.126-5.296 234-8c77.874-2.704 156.543.31 243 13s180.702 35.054 265 37c84.298 1.946 158.649-16.527 273-35" fill="none" stroke="#afa6ff" stroke-width="6" stroke-linecap="round"/><path d="M0 1200h0c83.048-14.706 166.096-29.412 253-21 86.904 8.412 177.664 39.94 256 31 78.336-8.94 144.248-58.351 223-49 78.752 9.351 170.345 77.464 265 80 94.655 2.536 192.371-60.506 271-68 78.629-7.494 138.17 40.56 219 61 80.83 20.44 182.952 13.269 272 3s165.024-23.634 281-37" fill="none" stroke="#c1baff" stroke-width="6" stroke-linecap="round"/></svg>